<svg width="7961" height="7208" viewBox="0 0 7961 7208" fill="none" xmlns="http://www.w3.org/2000/svg">
<path fill-rule="evenodd" clip-rule="evenodd" d="M1108.12 5708.94C869.122 5469.94 869.122 5082.45 1108.12 4843.44L1303.15 4648.42C1066.69 4797.48 750.416 4769.02 544.437 4563.04L516.123 4534.73C277.122 4295.73 277.122 3908.23 516.123 3669.23L1015.18 3170.17C775.108 3356.66 428.111 3339.63 207.564 3119.08L179.251 3090.77C-59.7502 2851.77 -59.7502 2464.27 179.251 2225.27L1692.23 712.291C1931.23 473.29 2318.73 473.29 2557.73 712.291L2586.04 740.605C2806.59 961.152 2823.62 1308.15 2637.13 1548.22L3905.37 279.982C4144.37 40.981 4531.87 40.9815 4770.87 279.982L4799.18 308.296C5005.16 514.275 5033.62 830.552 4884.56 1067.01L5772.32 179.251C6011.32 -59.7503 6398.81 -59.7501 6637.82 179.251L6727.01 268.45C6966.02 507.451 6966.02 894.948 6727.01 1133.95L6425.76 1435.2C6637.85 1366.02 6880.26 1415.7 7048.81 1584.25L7138.01 1673.45C7377.02 1912.45 7377.02 2299.95 7138.01 2538.95L6581.21 3095.75C6809.68 2983.71 7093.49 3022.67 7283.47 3212.65L7311.78 3240.96C7550.78 3479.97 7550.78 3867.46 7311.78 4106.46L6930.25 4487.99C7170.68 4288.53 7527.93 4301.45 7753.23 4526.75L7781.54 4555.06C8020.54 4794.06 8020.54 5181.56 7781.54 5420.56L6268.56 6933.54C6029.56 7172.54 5642.06 7172.54 5403.06 6933.54L5374.75 6905.23C5149.45 6679.93 5136.53 6322.68 5335.99 6082.25L4389.72 7028.52C4150.72 7267.52 3763.23 7267.52 3524.23 7028.52L3495.91 7000.21C3305.93 6810.23 3266.97 6526.42 3379.01 6297.95L2784.95 6892.01C2545.95 7131.01 2158.45 7131.01 1919.45 6892.01L1830.25 6802.81C1594.48 6567.04 1591.3 6186.76 1820.69 5947.09C1608.52 6016.43 1365.96 5966.78 1197.32 5798.14L1108.12 5708.94Z" fill="white"/>
<path d="M2215 5730V2491.07C2215 2437.2 2236.74 2385.6 2275.29 2347.96L2880.82 1756.8C2918.12 1720.38 2968.17 1699.97 3020.31 1699.91L5569 1697" stroke="#99EDCC" stroke-opacity="0.7" stroke-width="80" stroke-linejoin="round"/>
<g filter="url(#filter0_i_148_36)">
<path d="M5461.37 1628H2997.72C2945.56 1628 2895.47 1648.37 2858.12 1684.78L2205.27 2321.13C2166.65 2358.77 2144.87 2410.42 2144.87 2464.35V5594.5C2144.87 5704.96 2234.42 5794.5 2344.87 5794.5H5461.37C5571.83 5794.5 5661.37 5704.96 5661.37 5594.5V1828C5661.37 1717.54 5571.83 1628 5461.37 1628Z" stroke="#323232" stroke-width="80" stroke-linejoin="round"/>
</g>
<g filter="url(#filter1_i_148_36)">
<path d="M2881.37 2636.5H2679.37C2568.92 2636.5 2479.37 2726.04 2479.37 2836.5V5258.5C2479.37 5368.96 2568.92 5458.5 2679.37 5458.5H5124.87C5235.33 5458.5 5324.87 5368.96 5324.87 5258.5V2194.5C5324.87 2084.04 5235.33 1994.5 5124.87 1994.5H3281.37C3170.92 1994.5 3081.37 2084.04 3081.37 2194.5V2436.5C3081.37 2546.96 2991.83 2636.5 2881.37 2636.5Z" stroke="#323232" stroke-width="80" stroke-linejoin="round"/>
</g>
<g filter="url(#filter2_d_148_36)">
<rect x="3825.37" y="2374.5" width="1259" height="445" fill="#99EDCC"/>
<rect x="3865.37" y="2414.5" width="1179" height="365" stroke="#323232" stroke-width="80"/>
</g>
<g filter="url(#filter3_d_148_36)">
<rect x="2762.37" y="3121.5" width="2322" height="445" fill="#99EDCC"/>
<rect x="2802.37" y="3161.5" width="2242" height="365" stroke="#323232" stroke-width="80"/>
</g>
<g filter="url(#filter4_d_148_36)">
<rect x="2762.37" y="3868.5" width="2322" height="445" fill="#99EDCC"/>
<rect x="2802.37" y="3908.5" width="2242" height="365" stroke="#323232" stroke-width="80"/>
</g>
<g filter="url(#filter5_d_148_36)">
<rect x="2762.37" y="4615.5" width="2322" height="445" fill="#99EDCC"/>
<rect x="2802.37" y="4655.5" width="2242" height="365" stroke="#323232" stroke-width="80"/>
</g>
<mask id="path-13-inside-1_148_36" fill="white">
<path fill-rule="evenodd" clip-rule="evenodd" d="M5778.14 4271.51C5859.37 4118.1 5905.37 3943.17 5905.37 3757.5C5905.37 3149.99 5412.89 2657.5 4805.37 2657.5C4197.86 2657.5 3705.37 3149.99 3705.37 3757.5C3705.37 4365.01 4197.86 4857.5 4805.37 4857.5C4986.01 4857.5 5156.47 4813.96 5306.84 4736.81L6064.49 5494.45C6184.77 5614.73 6379.78 5614.73 6500.06 5494.45L6532.78 5461.73C6653.06 5341.45 6653.06 5146.44 6532.78 5026.15L5778.14 4271.51Z"/>
</mask>
<path fill-rule="evenodd" clip-rule="evenodd" d="M5778.14 4271.51C5859.37 4118.1 5905.37 3943.17 5905.37 3757.5C5905.37 3149.99 5412.89 2657.5 4805.37 2657.5C4197.86 2657.5 3705.37 3149.99 3705.37 3757.5C3705.37 4365.01 4197.86 4857.5 4805.37 4857.5C4986.01 4857.5 5156.47 4813.96 5306.84 4736.81L6064.49 5494.45C6184.77 5614.73 6379.78 5614.73 6500.06 5494.45L6532.78 5461.73C6653.06 5341.45 6653.06 5146.44 6532.78 5026.15L5778.14 4271.51Z" fill="white"/>
<path d="M5778.14 4271.51L5707.44 4234.08L5679.79 4286.3L5721.57 4328.08L5778.14 4271.51ZM5306.84 4736.81L5363.41 4680.24L5322.19 4639.02L5270.32 4665.63L5306.84 4736.81ZM6064.49 5494.45L6121.05 5437.88L6121.05 5437.88L6064.49 5494.45ZM6532.78 5026.15L6589.35 4969.59L6589.35 4969.59L6532.78 5026.15ZM5825.37 3757.5C5825.37 3929.81 5782.71 4091.92 5707.44 4234.08L5848.84 4308.95C5936.03 4144.29 5985.37 3956.54 5985.37 3757.5H5825.37ZM4805.37 2737.5C5368.7 2737.5 5825.37 3194.17 5825.37 3757.5H5985.37C5985.37 3105.8 5457.07 2577.5 4805.37 2577.5V2737.5ZM3785.37 3757.5C3785.37 3194.17 4242.04 2737.5 4805.37 2737.5V2577.5C4153.68 2577.5 3625.37 3105.8 3625.37 3757.5H3785.37ZM4805.37 4777.5C4242.04 4777.5 3785.37 4320.83 3785.37 3757.5H3625.37C3625.37 4409.2 4153.68 4937.5 4805.37 4937.5V4777.5ZM5270.32 4665.63C5130.99 4737.12 4973.01 4777.5 4805.37 4777.5V4937.5C4999 4937.5 5181.95 4890.8 5343.36 4807.98L5270.32 4665.63ZM6121.05 5437.88L5363.41 4680.24L5250.27 4793.37L6007.92 5551.02L6121.05 5437.88ZM6443.49 5437.88C6354.45 5526.92 6210.09 5526.92 6121.05 5437.88L6007.92 5551.02C6159.44 5702.54 6405.11 5702.54 6556.63 5551.02L6443.49 5437.88ZM6476.21 5405.16L6443.49 5437.88L6556.63 5551.02L6589.35 5518.3L6476.21 5405.16ZM6476.21 5082.72C6565.25 5171.76 6565.25 5316.12 6476.21 5405.16L6589.35 5518.3C6740.87 5366.78 6740.87 5121.11 6589.35 4969.59L6476.21 5082.72ZM5721.57 4328.08L6476.21 5082.72L6589.35 4969.59L5834.71 4214.95L5721.57 4328.08Z" fill="#323232" mask="url(#path-13-inside-1_148_36)"/>
<circle cx="4806.37" cy="3764.5" r="760" fill="white" stroke="#323232" stroke-width="80"/>
<path d="M5436.37 3747.5C4818.4 3450.71 4485.13 3662.11 4826.37 4357.5C4489.48 4357.5 4216.37 4084.39 4216.37 3747.5C4216.37 3410.61 4489.48 3137.5 4826.37 3137.5C5163.27 3137.5 5436.37 3410.61 5436.37 3747.5Z" fill="#99EDCC"/>
<defs>
<filter id="filter0_i_148_36" x="2104.87" y="1588" width="3596.5" height="4250.5" filterUnits="userSpaceOnUse" color-interpolation-filters="sRGB">
<feFlood flood-opacity="0" result="BackgroundImageFix"/>
<feBlend mode="normal" in="SourceGraphic" in2="BackgroundImageFix" result="shape"/>
<feColorMatrix in="SourceAlpha" type="matrix" values="0 0 0 0 0 0 0 0 0 0 0 0 0 0 0 0 0 0 127 0" result="hardAlpha"/>
<feOffset dy="4"/>
<feGaussianBlur stdDeviation="2"/>
<feComposite in2="hardAlpha" operator="arithmetic" k2="-1" k3="1"/>
<feColorMatrix type="matrix" values="0 0 0 0 0 0 0 0 0 0 0 0 0 0 0 0 0 0 0.25 0"/>
<feBlend mode="normal" in2="shape" result="effect1_innerShadow_148_36"/>
</filter>
<filter id="filter1_i_148_36" x="2439.37" y="1954.5" width="2925.5" height="3548" filterUnits="userSpaceOnUse" color-interpolation-filters="sRGB">
<feFlood flood-opacity="0" result="BackgroundImageFix"/>
<feBlend mode="normal" in="SourceGraphic" in2="BackgroundImageFix" result="shape"/>
<feColorMatrix in="SourceAlpha" type="matrix" values="0 0 0 0 0 0 0 0 0 0 0 0 0 0 0 0 0 0 127 0" result="hardAlpha"/>
<feOffset dy="4"/>
<feGaussianBlur stdDeviation="2"/>
<feComposite in2="hardAlpha" operator="arithmetic" k2="-1" k3="1"/>
<feColorMatrix type="matrix" values="0 0 0 0 0 0 0 0 0 0 0 0 0 0 0 0 0 0 0.25 0"/>
<feBlend mode="normal" in2="shape" result="effect1_innerShadow_148_36"/>
</filter>
<filter id="filter2_d_148_36" x="3821.37" y="2374.5" width="1267" height="453" filterUnits="userSpaceOnUse" color-interpolation-filters="sRGB">
<feFlood flood-opacity="0" result="BackgroundImageFix"/>
<feColorMatrix in="SourceAlpha" type="matrix" values="0 0 0 0 0 0 0 0 0 0 0 0 0 0 0 0 0 0 127 0" result="hardAlpha"/>
<feOffset dy="4"/>
<feGaussianBlur stdDeviation="2"/>
<feComposite in2="hardAlpha" operator="out"/>
<feColorMatrix type="matrix" values="0 0 0 0 0 0 0 0 0 0 0 0 0 0 0 0 0 0 0.25 0"/>
<feBlend mode="normal" in2="BackgroundImageFix" result="effect1_dropShadow_148_36"/>
<feBlend mode="normal" in="SourceGraphic" in2="effect1_dropShadow_148_36" result="shape"/>
</filter>
<filter id="filter3_d_148_36" x="2758.37" y="3121.5" width="2330" height="453" filterUnits="userSpaceOnUse" color-interpolation-filters="sRGB">
<feFlood flood-opacity="0" result="BackgroundImageFix"/>
<feColorMatrix in="SourceAlpha" type="matrix" values="0 0 0 0 0 0 0 0 0 0 0 0 0 0 0 0 0 0 127 0" result="hardAlpha"/>
<feOffset dy="4"/>
<feGaussianBlur stdDeviation="2"/>
<feComposite in2="hardAlpha" operator="out"/>
<feColorMatrix type="matrix" values="0 0 0 0 0 0 0 0 0 0 0 0 0 0 0 0 0 0 0.25 0"/>
<feBlend mode="normal" in2="BackgroundImageFix" result="effect1_dropShadow_148_36"/>
<feBlend mode="normal" in="SourceGraphic" in2="effect1_dropShadow_148_36" result="shape"/>
</filter>
<filter id="filter4_d_148_36" x="2758.37" y="3868.5" width="2330" height="453" filterUnits="userSpaceOnUse" color-interpolation-filters="sRGB">
<feFlood flood-opacity="0" result="BackgroundImageFix"/>
<feColorMatrix in="SourceAlpha" type="matrix" values="0 0 0 0 0 0 0 0 0 0 0 0 0 0 0 0 0 0 127 0" result="hardAlpha"/>
<feOffset dy="4"/>
<feGaussianBlur stdDeviation="2"/>
<feComposite in2="hardAlpha" operator="out"/>
<feColorMatrix type="matrix" values="0 0 0 0 0 0 0 0 0 0 0 0 0 0 0 0 0 0 0.25 0"/>
<feBlend mode="normal" in2="BackgroundImageFix" result="effect1_dropShadow_148_36"/>
<feBlend mode="normal" in="SourceGraphic" in2="effect1_dropShadow_148_36" result="shape"/>
</filter>
<filter id="filter5_d_148_36" x="2758.37" y="4615.5" width="2330" height="453" filterUnits="userSpaceOnUse" color-interpolation-filters="sRGB">
<feFlood flood-opacity="0" result="BackgroundImageFix"/>
<feColorMatrix in="SourceAlpha" type="matrix" values="0 0 0 0 0 0 0 0 0 0 0 0 0 0 0 0 0 0 127 0" result="hardAlpha"/>
<feOffset dy="4"/>
<feGaussianBlur stdDeviation="2"/>
<feComposite in2="hardAlpha" operator="out"/>
<feColorMatrix type="matrix" values="0 0 0 0 0 0 0 0 0 0 0 0 0 0 0 0 0 0 0.25 0"/>
<feBlend mode="normal" in2="BackgroundImageFix" result="effect1_dropShadow_148_36"/>
<feBlend mode="normal" in="SourceGraphic" in2="effect1_dropShadow_148_36" result="shape"/>
</filter>
</defs>
</svg>
