<svg width="7012" height="13895" viewBox="0 0 7012 13895" fill="none" xmlns="http://www.w3.org/2000/svg">
<rect x="146" y="183" width="6715" height="13517" rx="297" fill="white"/>
<path fill-rule="evenodd" clip-rule="evenodd" d="M5077.66 200H6222C6547.85 200 6812 464.152 6812 790V13104.8C6812 13430.7 6547.85 13694.8 6222 13694.8H790C464.152 13694.8 200 13430.7 200 13104.8V790C200 464.152 464.152 200 790 200H1934.35V448.566C1934.35 559.023 2023.89 648.566 2134.35 648.566H4877.66C4988.12 648.566 5077.66 559.023 5077.66 448.566V200ZM5077.66 0H6222C6658.31 0 7012 353.695 7012 790V13104.8C7012 13541.1 6658.3 13894.8 6222 13894.8H790C353.695 13894.8 0 13541.1 0 13104.8V790C0 353.695 353.695 0 790 0H1934.35H5077.66Z" fill="#1E1E1E"/>
<rect x="1262" y="2836" width="4482" height="5066" fill="#9A275A"/>
<path fill-rule="evenodd" clip-rule="evenodd" d="M3952.58 5325.94C4157.08 5183.98 4291 4947.31 4291 4679.32C4291 4245.05 3939.32 3893 3505.5 3893C3071.68 3893 2720 4245.05 2720 4679.32C2720 4943.56 2850.21 5177.36 3049.89 5319.93C3158.76 5504.67 3197.14 5621.12 3200.5 5811H3503H3805.5C3808.82 5623.19 3846.4 5507.21 3952.58 5325.94Z" fill="#9AC4F8"/>
<path d="M3454.5 5811.5L3281 4846M3560.5 5811.5L3729.5 4846" stroke="#9A275A" stroke-width="30" stroke-linecap="round" stroke-linejoin="round"/>
<path d="M4145.5 4552C4248.5 4659 4162 4798.5 4091 4798.5H3961.5H3438.5H3281.5H3007.5H2936C2813.5 4790.5 2764.5 4653.5 2870 4546.5C2852.03 4411.93 2882.5 4339.5 3007.5 4328.5C2983 4236.5 3070 4167 3186.5 4196.5C3223.5 4078 3321.5 4047 3404.5 4096C3486.5 4010.5 3582 4011 3635 4104.5C3731.5 4041.5 3828 4096 3846.5 4183.5C3963 4166 3999.16 4222.32 4028 4328.5C4186.5 4355 4194 4470 4145.5 4552Z" fill="#E36588"/>
<path d="M4145.5 4552C4248.5 4659 4162 4798.5 4091 4798.5H3961.5M4145.5 4552C4194 4470 4186.5 4355 4028 4328.5M4145.5 4552H3936C3855.13 4541.41 3824.48 4513.37 3802.5 4414M4028 4328.5C3999.16 4222.32 3963 4166 3846.5 4183.5C3828 4096 3731.5 4041.5 3635 4104.5M4028 4328.5L3924.5 4414M3635 4104.5C3582 4011 3486.5 4010.5 3404.5 4096C3321.5 4047 3223.5 4078 3186.5 4196.5M3635 4104.5C3622.54 4203.94 3589.51 4235 3492 4254M3186.5 4196.5C3070 4167 2983 4236.5 3007.5 4328.5M3186.5 4196.5L3270 4322.5M3007.5 4328.5C2882.5 4339.5 2852.03 4411.93 2870 4546.5C2764.5 4653.5 2813.5 4790.5 2936 4798.5H3007.5M3007.5 4328.5C3103.79 4360.73 3134.53 4392.6 3144 4476M3007.5 4798.5C3013.14 4704.98 3042.5 4671.05 3149.5 4649M3007.5 4798.5H3281.5M3281.5 4798.5V4679M3281.5 4798.5H3438.5M3438.5 4798.5V4606.5M3438.5 4798.5H3961.5M3438.5 4606.5C3451.77 4515.54 3477.1 4478.1 3582.5 4457M3438.5 4606.5C3345.83 4594.13 3311.6 4563.8 3290.5 4457M3961.5 4798.5C3941.07 4704.54 3908.6 4670.81 3808 4649" stroke="#9A275A" stroke-width="60" stroke-linecap="round" stroke-linejoin="round"/>
<rect x="2477" y="4775.55" width="121" height="31" rx="15.5" transform="rotate(-5 2477 4775.55)" fill="white"/>
<rect x="2520.23" y="4986.58" width="121" height="31" rx="15.5" transform="rotate(-17 2520.23 4986.58)" fill="white"/>
<rect x="2606" y="5185.5" width="121" height="31" rx="15.5" transform="rotate(-30 2606 5185.5)" fill="white"/>
<rect x="2729.98" y="5361.73" width="121" height="31" rx="15.5" transform="rotate(-42 2729.98 5361.73)" fill="white"/>
<rect x="2890.22" y="5511.38" width="121" height="31" rx="15.5" transform="rotate(-55 2890.22 5511.38)" fill="white"/>
<rect x="2744.38" y="3978" width="121" height="31" rx="15.5" transform="rotate(41.1126 2744.38 3978)" fill="white"/>
<rect x="2615.11" y="4151.23" width="121" height="31" rx="15.5" transform="rotate(30.7881 2615.11 4151.23)" fill="white"/>
<rect x="2525.18" y="4350.45" width="121" height="31" rx="15.5" transform="rotate(17.606 2525.18 4350.45)" fill="white"/>
<rect x="2477.13" y="4561" width="121" height="31" rx="15.5" transform="rotate(3.93711 2477.13 4561)" fill="white"/>
<rect x="4535.69" y="4793.54" width="121" height="31" rx="15.5" transform="rotate(-175.917 4535.69 4793.54)" fill="white"/>
<rect x="4536.92" y="4585.11" width="121" height="31" rx="15.5" transform="rotate(176.232 4536.92 4585.11)" fill="white"/>
<rect x="4493.53" y="4368.34" width="121" height="31" rx="15.5" transform="rotate(161.161 4493.53 4368.34)" fill="white"/>
<rect x="4406.99" y="4169.39" width="121" height="31" rx="15.5" transform="rotate(149.82 4406.99 4169.39)" fill="white"/>
<rect x="4281.05" y="3995.54" width="121" height="31" rx="15.5" transform="rotate(139.402 4281.05 3995.54)" fill="white"/>
<rect x="4107.36" y="5519.96" width="121" height="31" rx="15.5" transform="rotate(-127.056 4107.36 5519.96)" fill="white"/>
<rect x="4267.36" y="5377.48" width="121" height="31" rx="15.5" transform="rotate(-137.602 4267.36 5377.48)" fill="white"/>
<rect x="4395.22" y="5203.18" width="121" height="31" rx="15.5" transform="rotate(-149.465 4395.22 5203.18)" fill="white"/>
<rect x="4487.99" y="5005.18" width="121" height="31" rx="15.5" transform="rotate(-163.45 4487.99 5005.18)" fill="white"/>
<rect x="3515" y="3644" width="121" height="31" rx="15.5" transform="rotate(89.7196 3515 3644)" fill="white"/>
<rect x="3304.54" y="3664" width="121" height="31" rx="15.5" transform="rotate(80.1611 3304.54 3664)" fill="white"/>
<rect x="3095.38" y="3731" width="121" height="31" rx="15.5" transform="rotate(66.2512 3095.38 3731)" fill="white"/>
<rect x="2905.74" y="3836" width="121" height="31" rx="15.5" transform="rotate(52.9497 2905.74 3836)" fill="white"/>
<rect x="4121.92" y="3846.45" width="121" height="31" rx="15.5" transform="rotate(126.521 4121.92 3846.45)" fill="white"/>
<rect x="3935.52" y="3738.03" width="121" height="31" rx="15.5" transform="rotate(112.83 3935.52 3738.03)" fill="white"/>
<rect x="3729.18" y="3663.55" width="121" height="31" rx="15.5" transform="rotate(100.321 3729.18 3663.55)" fill="white"/>
<circle cx="3729" cy="4846" r="40" fill="white"/>
<circle cx="3281" cy="4846" r="40" fill="white"/>
<rect x="3143" y="5811" width="726" height="88" rx="44" fill="white"/>
<path d="M3181.5 5899.5H3830.5V6197C3830.5 6296.14 3750.14 6376.5 3651 6376.5H3361C3261.86 6376.5 3181.5 6296.14 3181.5 6197V5899.5Z" fill="#E36588" stroke="white"/>
<g filter="url(#filter0_d_144_76)">
<path d="M1866.04 6657.96C1851.71 6657.96 1841.46 6659.91 1835.28 6663.82C1829.25 6667.56 1826.24 6674.8 1826.24 6685.54V6836.42H1875.07C1881.74 6836.42 1887.36 6835.77 1891.92 6834.47C1896.47 6833.17 1900.05 6830.48 1902.66 6826.41C1905.26 6822.18 1907.05 6816.32 1908.03 6808.84C1909.17 6801.35 1909.74 6791.42 1909.74 6779.05H1995.19V6927H1642.16V6836.42C1656.48 6836.42 1666.74 6834.55 1672.92 6830.81C1679.11 6826.9 1682.2 6819.66 1682.2 6809.08V6685.54C1682.2 6674.8 1679.11 6667.56 1672.92 6663.82C1666.74 6659.91 1656.48 6657.96 1642.16 6657.96V6567.38H1866.04V6657.96ZM2145.58 6691.89C2137.28 6691.89 2130.12 6692.54 2124.09 6693.85C2118.23 6694.99 2113.19 6696.37 2108.96 6698C2104.73 6699.62 2101.23 6701.5 2098.46 6703.61C2095.69 6705.56 2093.25 6707.35 2091.13 6708.98L2093.58 6711.42C2096.67 6709.8 2100.01 6708.17 2103.59 6706.54C2107.33 6704.91 2112.05 6704.1 2117.75 6704.1C2127.35 6704.1 2135.65 6707.27 2142.65 6713.62C2149.65 6719.81 2153.15 6729.73 2153.15 6743.41C2153.15 6756.43 2147.78 6766.93 2137.03 6774.9C2126.45 6782.71 2112.21 6786.62 2094.31 6786.62C2077.22 6786.62 2063.55 6781.74 2053.29 6771.97C2043.2 6762.04 2038.16 6748.04 2038.16 6729.98C2038.16 6720.05 2040.92 6710.2 2046.46 6700.44C2051.99 6690.51 2060.54 6681.64 2072.09 6673.83C2083.81 6666.01 2098.62 6659.58 2116.53 6654.54C2134.59 6649.49 2156.32 6646.97 2181.71 6646.97C2211.98 6646.97 2236.72 6649.82 2255.93 6655.52C2275.14 6661.21 2290.03 6668.54 2300.61 6677.49C2311.35 6686.44 2318.67 6696.61 2322.58 6708.01C2326.65 6719.4 2328.68 6730.87 2328.68 6742.43V6837.89C2328.68 6852.7 2329.17 6862.79 2330.15 6868.16C2331.12 6873.37 2334.79 6875.97 2341.13 6875.97C2346.18 6875.97 2349.68 6873.61 2351.63 6868.89C2353.75 6864.01 2354.81 6855.71 2354.81 6843.99V6813.47H2382.64V6844.48C2382.64 6859.13 2381.42 6872.15 2378.98 6883.54C2376.54 6894.77 2371.9 6904.46 2365.06 6912.6C2358.22 6920.57 2348.95 6926.59 2337.23 6930.66C2325.51 6934.89 2310.54 6937.01 2292.31 6937.01C2275.87 6937.01 2262.2 6935.22 2251.29 6931.64C2240.55 6928.22 2232 6923.91 2225.66 6918.7C2219.31 6913.49 2214.75 6908.12 2211.98 6902.59C2209.38 6896.89 2208.08 6891.84 2208.08 6887.45H2204.17C2203.2 6894.12 2200.35 6900.47 2195.63 6906.49C2191.07 6912.51 2184.64 6917.89 2176.34 6922.61C2168.2 6927.16 2158.35 6930.82 2146.8 6933.59C2135.41 6936.52 2122.38 6937.99 2107.74 6937.99C2093.74 6937.99 2080.96 6936.6 2069.41 6933.84C2058.01 6931.23 2048.25 6927.08 2040.11 6921.38C2032.13 6915.53 2025.87 6908.04 2021.31 6898.92C2016.92 6889.65 2014.72 6878.66 2014.72 6865.96C2014.72 6850.34 2019.11 6838.05 2027.9 6829.1C2036.69 6819.99 2047.76 6812.82 2061.11 6807.62C2074.45 6802.24 2088.94 6797.93 2104.56 6794.68C2120.35 6791.26 2134.92 6787.19 2148.26 6782.47C2161.61 6777.75 2172.68 6771.65 2181.47 6764.16C2190.26 6756.67 2194.65 6746.09 2194.65 6732.42C2194.65 6720.21 2190.83 6710.45 2183.18 6703.12C2175.53 6695.64 2162.99 6691.89 2145.58 6691.89ZM2194.65 6797.61C2191.07 6802.81 2186.59 6807.05 2181.22 6810.3C2175.85 6813.39 2170.64 6816.49 2165.6 6819.58C2160.71 6822.51 2156.4 6826.09 2152.66 6830.32C2149.08 6834.39 2147.29 6839.92 2147.29 6846.92C2147.29 6852.29 2148.75 6857.18 2151.68 6861.57C2154.61 6865.8 2160.31 6867.92 2168.77 6867.92C2176.42 6867.92 2182.61 6864.99 2187.33 6859.13C2192.21 6853.11 2194.65 6844.72 2194.65 6833.98V6797.61ZM2871.65 6698H2791.09C2789.78 6689.7 2786.85 6681.96 2782.3 6674.8C2777.9 6667.64 2772.45 6661.46 2765.94 6656.25C2759.43 6651.04 2752.19 6647.05 2744.21 6644.29C2736.24 6641.36 2728.02 6639.89 2719.55 6639.89C2709.3 6639.89 2701 6641.84 2694.65 6645.75C2688.3 6649.66 2685.13 6655.11 2685.13 6662.11C2685.13 6668.78 2687.98 6674.23 2693.67 6678.46C2699.37 6682.53 2706.86 6686.11 2716.13 6689.21C2725.41 6692.14 2735.99 6694.99 2747.87 6697.75C2759.75 6700.52 2771.8 6703.94 2784.01 6708.01C2796.38 6712.07 2808.5 6717.04 2820.38 6722.9C2832.26 6728.6 2842.84 6736 2852.12 6745.12C2861.4 6754.07 2868.89 6765.05 2874.58 6778.07C2880.28 6791.1 2883.13 6806.72 2883.13 6824.95C2883.13 6844.32 2878.98 6860.84 2870.68 6874.51C2862.38 6888.18 2851.23 6899.41 2837.23 6908.2C2823.23 6916.99 2807.12 6923.42 2788.89 6927.49C2770.66 6931.56 2751.78 6933.59 2732.25 6933.59C2713.21 6933.59 2694.98 6931.39 2677.56 6927C2660.31 6922.61 2642.65 6915.44 2624.58 6905.52V6927H2544.02V6793.94H2624.58C2629.3 6812.99 2638.74 6828.04 2652.9 6839.11C2667.06 6850.01 2683.01 6855.47 2700.75 6855.47C2712.64 6855.47 2721.51 6853.27 2727.37 6848.88C2733.22 6844.32 2736.15 6839.19 2736.15 6833.49C2736.15 6824.54 2731.27 6817.62 2721.51 6812.74C2711.9 6807.86 2699.94 6803.55 2685.62 6799.8C2671.29 6795.9 2655.59 6791.58 2638.5 6786.86C2621.57 6781.98 2605.95 6775.06 2591.62 6766.11C2577.3 6757 2565.26 6745.03 2555.49 6730.22C2545.89 6715.41 2541.09 6696.04 2541.09 6672.12C2541.09 6654.38 2544.91 6638.67 2552.56 6625C2560.21 6611.33 2570.46 6599.85 2583.32 6590.57C2596.18 6581.13 2610.99 6574.05 2627.76 6569.33C2644.68 6564.45 2662.51 6562.01 2681.22 6562.01C2707.1 6562.01 2729.32 6565.02 2747.87 6571.04C2766.43 6577.07 2780.83 6583.41 2791.09 6590.09V6567.38H2871.65V6698ZM3045.24 6807.62C3045.89 6831.87 3050.44 6848.63 3058.91 6857.91C3067.53 6867.02 3079.82 6871.58 3095.77 6871.58C3101.14 6871.58 3106.35 6870.85 3111.4 6869.38C3116.61 6867.76 3121.41 6865.23 3125.8 6861.81C3130.2 6858.23 3133.94 6853.6 3137.03 6847.9C3140.29 6842.04 3142.4 6834.71 3143.38 6825.93H3232.25C3228.99 6846.92 3222.97 6864.5 3214.18 6878.66C3205.56 6892.82 3194.41 6904.29 3180.73 6913.08C3167.06 6921.71 3151.11 6927.9 3132.88 6931.64C3114.82 6935.54 3094.63 6937.5 3072.34 6937.5C3049.39 6937.5 3027.82 6934.57 3007.64 6928.71C2987.46 6922.85 2969.72 6913.98 2954.42 6902.1C2939.28 6890.05 2927.4 6875 2918.77 6856.93C2910.15 6838.7 2905.83 6817.06 2905.83 6791.99C2905.83 6768.06 2909.9 6747.07 2918.04 6729C2926.18 6710.94 2937.57 6695.88 2952.22 6683.84C2967.03 6671.63 2984.45 6662.43 3004.46 6656.25C3024.65 6650.06 3046.78 6646.97 3070.87 6646.97C3100.49 6646.97 3125.97 6650.88 3147.29 6658.69C3168.61 6666.5 3186.02 6677.41 3199.53 6691.4C3213.04 6705.4 3222.97 6722.25 3229.32 6741.94C3235.67 6761.64 3238.68 6783.53 3238.35 6807.62H3045.24ZM3081.37 6712.89C3069.98 6712.89 3061.51 6716.96 3055.98 6725.1C3050.61 6733.07 3047.03 6746.34 3045.24 6764.89H3116.77C3115.79 6748.94 3112.38 6736.33 3106.52 6727.05C3100.66 6717.61 3092.27 6712.89 3081.37 6712.89ZM3622.87 6812.5C3622.87 6821.12 3624.34 6827.31 3627.27 6831.05C3630.36 6834.63 3636.22 6836.42 3644.85 6836.42H3652.9V6927H3488.84V6770.99C3488.84 6764.65 3488.19 6759.6 3486.89 6755.86C3485.58 6751.95 3483.79 6749.02 3481.52 6747.07C3479.4 6744.95 3476.88 6743.57 3473.95 6742.92C3471.18 6742.27 3468.49 6741.94 3465.89 6741.94C3455.15 6741.94 3447.74 6745.03 3443.67 6751.22C3439.77 6757.4 3437.81 6766.19 3437.81 6777.59V6812.5C3437.81 6821.12 3439.28 6827.31 3442.21 6831.05C3445.3 6834.63 3451.16 6836.42 3459.79 6836.42H3467.84V6927H3268.87V6836.42H3283.27C3289.95 6836.42 3294.99 6834.31 3298.41 6830.08C3301.99 6825.68 3303.78 6820.47 3303.78 6814.45V6768.06C3303.78 6760.41 3301.5 6755.29 3296.95 6752.68C3292.55 6749.92 3287.51 6748.53 3281.81 6748.53H3268.87V6657.96H3413.89L3408.76 6725.1H3412.91C3416.49 6700.03 3426.58 6680.74 3443.19 6667.23C3459.95 6653.73 3484.2 6646.97 3515.94 6646.97C3527.82 6646.97 3538.89 6648.6 3549.14 6651.85C3559.56 6654.95 3568.76 6659.75 3576.73 6666.26C3584.87 6672.77 3591.22 6680.99 3595.77 6690.92C3600.49 6700.68 3603.18 6712.07 3603.83 6725.1H3607.25C3608.71 6712.73 3612.29 6701.66 3617.99 6691.89C3623.85 6681.96 3631.17 6673.74 3639.96 6667.23C3648.91 6660.72 3658.68 6655.76 3669.26 6652.34C3680 6648.76 3691.23 6646.97 3702.95 6646.97C3724.6 6646.97 3742.26 6650.14 3755.93 6656.49C3769.6 6662.84 3780.26 6670.9 3787.91 6680.66C3795.56 6690.26 3800.77 6700.76 3803.54 6712.16C3806.47 6723.39 3807.93 6733.97 3807.93 6743.89V6812.5C3807.93 6821.12 3809.4 6827.31 3812.33 6831.05C3815.42 6834.63 3821.28 6836.42 3829.9 6836.42H3842.84V6927H3673.9V6770.99C3673.9 6764.65 3673.17 6759.6 3671.7 6755.86C3670.4 6751.95 3668.69 6749.02 3666.57 6747.07C3664.46 6744.95 3661.94 6743.57 3659.01 6742.92C3656.24 6742.27 3653.55 6741.94 3650.95 6741.94C3640.21 6741.94 3632.8 6745.03 3628.73 6751.22C3624.83 6757.4 3622.87 6766.19 3622.87 6777.59V6812.5ZM3988.35 6691.89C3980.05 6691.89 3972.89 6692.54 3966.87 6693.85C3961.01 6694.99 3955.96 6696.37 3951.73 6698C3947.5 6699.62 3944 6701.5 3941.23 6703.61C3938.47 6705.56 3936.02 6707.35 3933.91 6708.98L3936.35 6711.42C3939.44 6709.8 3942.78 6708.17 3946.36 6706.54C3950.1 6704.91 3954.82 6704.1 3960.52 6704.1C3970.12 6704.1 3978.42 6707.27 3985.42 6713.62C3992.42 6719.81 3995.92 6729.73 3995.92 6743.41C3995.92 6756.43 3990.55 6766.93 3979.81 6774.9C3969.23 6782.71 3954.99 6786.62 3937.08 6786.62C3919.99 6786.62 3906.32 6781.74 3896.07 6771.97C3885.98 6762.04 3880.93 6748.04 3880.93 6729.98C3880.93 6720.05 3883.7 6710.2 3889.23 6700.44C3894.76 6690.51 3903.31 6681.64 3914.87 6673.83C3926.58 6666.01 3941.4 6659.58 3959.3 6654.54C3977.37 6649.49 3999.09 6646.97 4024.48 6646.97C4054.76 6646.97 4079.5 6649.82 4098.7 6655.52C4117.91 6661.21 4132.8 6668.54 4143.38 6677.49C4154.12 6686.44 4161.45 6696.61 4165.35 6708.01C4169.42 6719.4 4171.46 6730.87 4171.46 6742.43V6837.89C4171.46 6852.7 4171.95 6862.79 4172.92 6868.16C4173.9 6873.37 4177.56 6875.97 4183.91 6875.97C4188.95 6875.97 4192.45 6873.61 4194.41 6868.89C4196.52 6864.01 4197.58 6855.71 4197.58 6843.99V6813.47H4225.41V6844.48C4225.41 6859.13 4224.19 6872.15 4221.75 6883.54C4219.31 6894.77 4214.67 6904.46 4207.83 6912.6C4201 6920.57 4191.72 6926.59 4180 6930.66C4168.28 6934.89 4153.31 6937.01 4135.08 6937.01C4118.64 6937.01 4104.97 6935.22 4094.06 6931.64C4083.32 6928.22 4074.78 6923.91 4068.43 6918.7C4062.08 6913.49 4057.52 6908.12 4054.76 6902.59C4052.15 6896.89 4050.85 6891.84 4050.85 6887.45H4046.95C4045.97 6894.12 4043.12 6900.47 4038.4 6906.49C4033.84 6912.51 4027.41 6917.89 4019.11 6922.61C4010.98 6927.16 4001.13 6930.82 3989.57 6933.59C3978.18 6936.52 3965.16 6937.99 3950.51 6937.99C3936.51 6937.99 3923.74 6936.6 3912.18 6933.84C3900.79 6931.23 3891.02 6927.08 3882.88 6921.38C3874.91 6915.53 3868.64 6908.04 3864.08 6898.92C3859.69 6889.65 3857.49 6878.66 3857.49 6865.96C3857.49 6850.34 3861.89 6838.05 3870.68 6829.1C3879.46 6819.99 3890.53 6812.82 3903.88 6807.62C3917.23 6802.24 3931.71 6797.93 3947.34 6794.68C3963.12 6791.26 3977.69 6787.19 3991.04 6782.47C4004.38 6777.75 4015.45 6771.65 4024.24 6764.16C4033.03 6756.67 4037.42 6746.09 4037.42 6732.42C4037.42 6720.21 4033.6 6710.45 4025.95 6703.12C4018.3 6695.64 4005.77 6691.89 3988.35 6691.89ZM4037.42 6797.61C4033.84 6802.81 4029.37 6807.05 4024 6810.3C4018.62 6813.39 4013.42 6816.49 4008.37 6819.58C4003.49 6822.51 3999.18 6826.09 3995.43 6830.32C3991.85 6834.39 3990.06 6839.92 3990.06 6846.92C3990.06 6852.29 3991.53 6857.18 3994.46 6861.57C3997.38 6865.8 4003.08 6867.92 4011.54 6867.92C4019.19 6867.92 4025.38 6864.99 4030.1 6859.13C4034.98 6853.11 4037.42 6844.72 4037.42 6833.98V6797.61ZM4411.94 6657.96V6810.06C4411.94 6820.96 4414.62 6828.12 4419.99 6831.54C4425.36 6834.8 4432.2 6836.42 4440.5 6836.42H4447.09V6927H4241.53V6836.42H4251.05C4259.67 6836.42 4266.02 6833.74 4270.09 6828.37C4274.32 6822.83 4276.44 6816.89 4276.44 6810.54V6776.12C4276.44 6766.68 4273.43 6759.76 4267.4 6755.37C4261.54 6750.81 4254.71 6748.53 4246.9 6748.53H4241.53V6657.96H4411.94ZM4272.53 6597.9C4272.53 6583.9 4277.82 6571.94 4288.4 6562.01C4299.14 6552.08 4314.36 6547.12 4334.05 6547.12C4354.07 6547.12 4369.46 6552.08 4380.2 6562.01C4391.1 6571.94 4396.55 6583.9 4396.55 6597.9C4396.55 6612.22 4391.1 6624.35 4380.2 6634.28C4369.46 6644.04 4354.07 6648.92 4334.05 6648.92C4314.36 6648.92 4299.14 6644.04 4288.4 6634.28C4277.82 6624.35 4272.53 6612.22 4272.53 6597.9ZM4697.09 6770.99C4697.09 6764.65 4696.28 6759.6 4694.65 6755.86C4693.19 6751.95 4691.23 6749.02 4688.79 6747.07C4686.51 6744.95 4683.91 6743.57 4680.98 6742.92C4678.05 6742.27 4675.2 6741.94 4672.43 6741.94C4661.85 6741.94 4653.96 6745.03 4648.75 6751.22C4643.54 6757.4 4640.94 6766.19 4640.94 6777.59V6812.5C4640.94 6821.12 4642.4 6827.31 4645.33 6831.05C4648.43 6834.63 4654.29 6836.42 4662.91 6836.42H4676.1V6927H4471.99V6836.42H4486.4C4493.07 6836.42 4498.12 6834.31 4501.54 6830.08C4505.12 6825.68 4506.91 6820.47 4506.91 6814.45V6768.06C4506.91 6760.41 4504.63 6755.29 4500.07 6752.68C4495.68 6749.92 4490.63 6748.53 4484.93 6748.53H4471.99V6657.96H4617.01L4611.89 6725.1H4616.04C4619.62 6700.03 4630.6 6680.74 4649 6667.23C4667.39 6653.73 4692.37 6646.97 4723.95 6646.97C4746.25 6646.97 4764.39 6650.14 4778.39 6656.49C4792.39 6662.84 4803.21 6670.9 4810.86 6680.66C4818.67 6690.26 4823.96 6700.76 4826.73 6712.16C4829.5 6723.39 4830.88 6733.97 4830.88 6743.89V6812.5C4830.88 6821.12 4832.35 6827.31 4835.28 6831.05C4838.37 6834.63 4844.23 6836.42 4852.85 6836.42H4866.04V6927H4697.09V6770.99ZM5020.33 6807.62C5020.99 6831.87 5025.54 6848.63 5034.01 6857.91C5042.63 6867.02 5054.92 6871.58 5070.87 6871.58C5076.24 6871.58 5081.45 6870.85 5086.5 6869.38C5091.7 6867.76 5096.51 6865.23 5100.9 6861.81C5105.29 6858.23 5109.04 6853.6 5112.13 6847.9C5115.39 6842.04 5117.5 6834.71 5118.48 6825.93H5207.35C5204.09 6846.92 5198.07 6864.5 5189.28 6878.66C5180.65 6892.82 5169.5 6904.29 5155.83 6913.08C5142.16 6921.71 5126.21 6927.9 5107.98 6931.64C5089.91 6935.54 5069.73 6937.5 5047.43 6937.5C5024.48 6937.5 5002.92 6934.57 4982.74 6928.71C4962.55 6922.85 4944.81 6913.98 4929.51 6902.1C4914.38 6890.05 4902.5 6875 4893.87 6856.93C4885.24 6838.7 4880.93 6817.06 4880.93 6791.99C4880.93 6768.06 4885 6747.07 4893.14 6729C4901.27 6710.94 4912.67 6695.88 4927.32 6683.84C4942.13 6671.63 4959.54 6662.43 4979.56 6656.25C4999.74 6650.06 5021.88 6646.97 5045.97 6646.97C5075.59 6646.97 5101.06 6650.88 5122.38 6658.69C5143.71 6666.5 5161.12 6677.41 5174.63 6691.4C5188.14 6705.4 5198.07 6722.25 5204.42 6741.94C5210.76 6761.64 5213.77 6783.53 5213.45 6807.62H5020.33ZM5056.47 6712.89C5045.07 6712.89 5036.61 6716.96 5031.08 6725.1C5025.71 6733.07 5022.12 6746.34 5020.33 6764.89H5091.87C5090.89 6748.94 5087.47 6736.33 5081.61 6727.05C5075.75 6717.61 5067.37 6712.89 5056.47 6712.89ZM2512.52 7357.62C2513.17 7381.87 2517.73 7398.63 2526.19 7407.91C2534.82 7417.02 2547.11 7421.58 2563.06 7421.58C2568.43 7421.58 2573.64 7420.85 2578.68 7419.38C2583.89 7417.76 2588.69 7415.23 2593.09 7411.81C2597.48 7408.23 2601.23 7403.6 2604.32 7397.9C2607.57 7392.04 2609.69 7384.71 2610.67 7375.93H2699.53C2696.28 7396.92 2690.26 7414.5 2681.47 7428.66C2672.84 7442.82 2661.69 7454.29 2648.02 7463.08C2634.35 7471.71 2618.4 7477.9 2600.17 7481.64C2582.1 7485.54 2561.92 7487.5 2539.62 7487.5C2516.67 7487.5 2495.11 7484.57 2474.92 7478.71C2454.74 7472.85 2437 7463.98 2421.7 7452.1C2406.56 7440.05 2394.68 7425 2386.06 7406.93C2377.43 7388.7 2373.12 7367.06 2373.12 7341.99C2373.12 7318.06 2377.19 7297.07 2385.32 7279C2393.46 7260.94 2404.86 7245.88 2419.5 7233.84C2434.32 7221.63 2451.73 7212.43 2471.75 7206.25C2491.93 7200.06 2514.07 7196.97 2538.16 7196.97C2567.78 7196.97 2593.25 7200.88 2614.57 7208.69C2635.89 7216.5 2653.31 7227.41 2666.82 7241.4C2680.33 7255.4 2690.26 7272.25 2696.6 7291.94C2702.95 7311.64 2705.96 7333.53 2705.64 7357.62H2512.52ZM2548.65 7262.89C2537.26 7262.89 2528.8 7266.96 2523.26 7275.1C2517.89 7283.07 2514.31 7296.34 2512.52 7314.89H2584.05C2583.08 7298.94 2579.66 7286.33 2573.8 7277.05C2567.94 7267.61 2559.56 7262.89 2548.65 7262.89ZM2961.25 7320.99C2961.25 7314.65 2960.44 7309.6 2958.81 7305.86C2957.35 7301.95 2955.39 7299.02 2952.95 7297.07C2950.67 7294.95 2948.07 7293.57 2945.14 7292.92C2942.21 7292.27 2939.36 7291.94 2936.59 7291.94C2926.01 7291.94 2918.12 7295.03 2912.91 7301.22C2907.7 7307.4 2905.1 7316.19 2905.1 7327.59V7362.5C2905.1 7371.12 2906.56 7377.31 2909.49 7381.05C2912.59 7384.63 2918.45 7386.42 2927.07 7386.42H2940.26V7477H2736.15V7386.42H2750.56C2757.23 7386.42 2762.28 7384.31 2765.7 7380.08C2769.28 7375.68 2771.07 7370.47 2771.07 7364.45V7318.06C2771.07 7310.41 2768.79 7305.29 2764.23 7302.68C2759.84 7299.92 2754.79 7298.53 2749.09 7298.53H2736.15V7207.96H2881.17L2876.05 7275.1H2880.2C2883.78 7250.03 2894.76 7230.74 2913.16 7217.23C2931.55 7203.73 2956.53 7196.97 2988.11 7196.97C3010.41 7196.97 3028.55 7200.14 3042.55 7206.49C3056.55 7212.84 3067.37 7220.9 3075.02 7230.66C3082.83 7240.26 3088.12 7250.76 3090.89 7262.16C3093.66 7273.39 3095.04 7283.97 3095.04 7293.89V7362.5C3095.04 7371.12 3096.51 7377.31 3099.44 7381.05C3102.53 7384.63 3108.39 7386.42 3117.01 7386.42H3130.2V7477H2961.25V7320.99ZM3685.37 7206.98C3685.37 7259.06 3658.27 7287.55 3604.07 7292.43V7295.12C3632.39 7295.77 3654.69 7303.5 3670.97 7318.31C3687.24 7333.12 3695.38 7354.52 3695.38 7382.52C3695.38 7394.24 3694 7405.79 3691.23 7417.19C3688.47 7428.42 3682.44 7438.43 3673.17 7447.21C3664.05 7456 3650.79 7463.17 3633.37 7468.7C3616.12 7474.23 3592.84 7477 3563.55 7477H3294.99V7386.42C3309.32 7386.42 3319.57 7384.55 3325.75 7380.81C3331.94 7376.9 3335.03 7369.66 3335.03 7359.08V7235.54C3335.03 7224.8 3331.94 7217.56 3325.75 7213.82C3319.57 7209.91 3309.32 7207.96 3294.99 7207.96V7117.38H3580.39C3602.85 7117.38 3621 7119.9 3634.84 7124.95C3648.67 7129.99 3659.33 7136.67 3666.82 7144.97C3674.31 7153.27 3679.27 7162.87 3681.71 7173.78C3684.15 7184.52 3685.37 7195.59 3685.37 7206.98ZM3515.45 7386.42C3529.12 7386.42 3538.56 7383.82 3543.77 7378.61C3548.98 7373.24 3551.58 7364.37 3551.58 7352C3551.58 7339.63 3548.98 7330.68 3543.77 7325.14C3538.56 7319.45 3529.12 7316.6 3515.45 7316.6H3479.07V7386.42H3515.45ZM3479.07 7273.39H3515.94C3526.03 7273.39 3533.27 7270.21 3537.67 7263.87C3542.23 7257.35 3544.5 7249.54 3544.5 7240.43C3544.5 7231.8 3542.23 7224.23 3537.67 7217.72C3533.27 7211.21 3526.03 7207.96 3515.94 7207.96H3479.07V7273.39ZM3870.43 7207.96L3866.28 7275.1H3870.43C3876.13 7249.38 3885.57 7229.93 3898.75 7216.75C3912.1 7203.56 3929.35 7196.97 3950.51 7196.97C3963.04 7196.97 3973.78 7199.01 3982.74 7203.07C3991.85 7206.98 3999.18 7212.27 4004.71 7218.94C4010.24 7225.62 4014.23 7233.35 4016.67 7242.14C4019.11 7250.76 4020.33 7259.71 4020.33 7268.99C4020.33 7276.64 4019.19 7284.21 4016.92 7291.7C4014.64 7299.18 4010.98 7305.94 4005.93 7311.96C4000.88 7317.98 3994.37 7322.87 3986.4 7326.61C3978.42 7330.19 3968.58 7331.98 3956.86 7331.98C3940.58 7331.98 3927.72 7327.83 3918.28 7319.53C3909.01 7311.23 3904.37 7301.22 3904.37 7289.5C3904.37 7283.8 3905.02 7279 3906.32 7275.1C3907.62 7271.03 3908.92 7267.77 3910.23 7265.33C3911.69 7262.73 3912.67 7260.85 3913.16 7259.71C3913.64 7258.58 3913.07 7258.01 3911.45 7258.01C3908.03 7258.01 3904.29 7261.91 3900.22 7269.72C3896.31 7277.54 3894.36 7289.83 3894.36 7306.59V7362.5C3894.36 7371.12 3895.82 7377.31 3898.75 7381.05C3901.84 7384.63 3907.7 7386.42 3916.33 7386.42H3930.98V7477H3725.41V7386.42H3739.82C3746.49 7386.42 3751.54 7384.31 3754.95 7380.08C3758.53 7375.68 3760.32 7370.47 3760.32 7364.45V7318.06C3760.32 7310.41 3758.05 7305.29 3753.49 7302.68C3749.09 7299.92 3744.05 7298.53 3738.35 7298.53H3725.41V7207.96H3870.43ZM4173.65 7357.62C4174.31 7381.87 4178.86 7398.63 4187.33 7407.91C4195.95 7417.02 4208.24 7421.58 4224.19 7421.58C4229.56 7421.58 4234.77 7420.85 4239.82 7419.38C4245.02 7417.76 4249.83 7415.23 4254.22 7411.81C4258.62 7408.23 4262.36 7403.6 4265.45 7397.9C4268.71 7392.04 4270.82 7384.71 4271.8 7375.93H4360.67C4357.41 7396.92 4351.39 7414.5 4342.6 7428.66C4333.97 7442.82 4322.82 7454.29 4309.15 7463.08C4295.48 7471.71 4279.53 7477.9 4261.3 7481.64C4243.23 7485.54 4223.05 7487.5 4200.75 7487.5C4177.8 7487.5 4156.24 7484.57 4136.06 7478.71C4115.87 7472.85 4098.13 7463.98 4082.83 7452.1C4067.7 7440.05 4055.82 7425 4047.19 7406.93C4038.56 7388.7 4034.25 7367.06 4034.25 7341.99C4034.25 7318.06 4038.32 7297.07 4046.46 7279C4054.6 7260.94 4065.99 7245.88 4080.64 7233.84C4095.45 7221.63 4112.86 7212.43 4132.88 7206.25C4153.07 7200.06 4175.2 7196.97 4199.29 7196.97C4228.91 7196.97 4254.38 7200.88 4275.71 7208.69C4297.03 7216.5 4314.44 7227.41 4327.95 7241.4C4341.46 7255.4 4351.39 7272.25 4357.74 7291.94C4364.08 7311.64 4367.1 7333.53 4366.77 7357.62H4173.65ZM4209.79 7262.89C4198.39 7262.89 4189.93 7266.96 4184.4 7275.1C4179.03 7283.07 4175.44 7296.34 4173.65 7314.89H4245.19C4244.21 7298.94 4240.79 7286.33 4234.93 7277.05C4229.07 7267.61 4220.69 7262.89 4209.79 7262.89ZM4426.83 7207.96C4424.06 7206.65 4421.05 7204.78 4417.79 7202.34C4414.7 7199.74 4411.85 7196.56 4409.25 7192.82C4406.65 7188.91 4404.37 7184.52 4402.41 7179.64C4400.62 7174.59 4399.73 7168.89 4399.73 7162.55C4399.73 7151.15 4402.98 7141.31 4409.49 7133.01C4416 7124.71 4425.04 7117.87 4436.59 7112.5C4448.31 7107.13 4462.31 7103.22 4478.59 7100.78C4495.02 7098.34 4513.25 7097.12 4533.27 7097.12C4556.55 7097.12 4576.08 7098.5 4591.87 7101.27C4607.82 7104.03 4620.68 7108.02 4630.44 7113.23C4640.37 7118.44 4647.37 7124.71 4651.44 7132.03C4655.67 7139.35 4657.79 7147.49 4657.79 7156.44C4657.79 7161.81 4656.89 7167.02 4655.1 7172.07C4653.47 7176.95 4650.62 7181.43 4646.55 7185.5C4642.65 7189.57 4637.44 7192.82 4630.93 7195.26C4624.42 7197.7 4616.53 7198.92 4607.25 7198.92C4590.32 7198.92 4577.79 7194.94 4569.65 7186.96C4561.68 7178.99 4557.69 7169.14 4557.69 7157.42C4557.69 7150.75 4559.48 7145.21 4563.06 7140.82C4566.8 7136.26 4570.87 7133.17 4575.27 7131.54L4572.34 7129.59C4563.55 7129.59 4556.39 7130.73 4550.85 7133.01C4545.48 7135.28 4541.25 7138.05 4538.16 7141.31C4535.23 7144.4 4533.27 7147.98 4532.3 7152.05C4531.32 7155.96 4530.83 7159.78 4530.83 7163.52C4530.83 7168.89 4531.89 7174.27 4534.01 7179.64C4536.12 7184.85 4539.7 7189.57 4544.75 7193.8C4549.79 7197.87 4556.47 7201.28 4564.77 7204.05C4573.07 7206.65 4583.4 7207.96 4595.77 7207.96H4622.87V7298.53H4567.7V7360.06C4567.7 7370.96 4570.38 7378.12 4575.75 7381.54C4581.12 7384.8 4587.96 7386.42 4596.26 7386.42H4612.86V7477H4397.29V7386.42H4406.81C4415.43 7386.42 4421.78 7383.74 4425.85 7378.37C4430.08 7372.83 4432.2 7366.89 4432.2 7360.54V7298.53H4387.28V7207.96H4426.83Z" fill="white"/>
</g>
<path d="M1913 10138H5098" stroke="#C2C2C2" stroke-width="40" stroke-linecap="round"/>
<path d="M1913 10138H3843" stroke="#9A275A" stroke-width="50" stroke-linecap="round"/>
<circle cx="3844" cy="10138" r="70" fill="#9A275A"/>
<circle cx="3503" cy="10779" r="325" fill="#9A275A"/>
<path d="M3445 10679V10880" stroke="white" stroke-width="40" stroke-linecap="round"/>
<path d="M3567 10679V10880" stroke="white" stroke-width="40" stroke-linecap="round"/>
<path d="M2570.19 10790.9C2564.04 10787 2564.04 10778 2570.19 10774.1L2738.87 10666.3C2745.52 10662.1 2754.25 10666.8 2754.25 10674.7V10890.3C2754.25 10898.2 2745.52 10902.9 2738.87 10898.7L2570.19 10790.9Z" fill="#9A275A"/>
<path d="M2410 10786.9C2403.9 10783 2403.9 10774 2410 10770.1L2576.57 10662.5C2583.23 10658.2 2592 10662.9 2592 10670.9V10886.1C2592 10894.1 2583.23 10898.8 2576.57 10894.5L2410 10786.9Z" fill="#9A275A"/>
<path d="M4441.81 10767.1C4447.96 10771 4447.96 10780 4441.81 10783.9L4273.13 10891.7C4266.48 10895.9 4257.75 10891.2 4257.75 10883.3V10667.7C4257.75 10659.8 4266.48 10655.1 4273.13 10659.3L4441.81 10767.1Z" fill="#9A275A"/>
<path d="M4602.03 10769.9C4608.12 10773.8 4608.12 10782.7 4602.03 10786.7L4435.45 10894.3C4428.8 10898.6 4420.03 10893.8 4420.03 10885.9V10670.6C4420.03 10662.7 4428.8 10657.9 4435.45 10662.2L4602.03 10769.9Z" fill="#9A275A"/>
<defs>
<filter id="filter0_d_144_76" x="1638.16" y="6547.12" width="3579.78" height="948.381" filterUnits="userSpaceOnUse" color-interpolation-filters="sRGB">
<feFlood flood-opacity="0" result="BackgroundImageFix"/>
<feColorMatrix in="SourceAlpha" type="matrix" values="0 0 0 0 0 0 0 0 0 0 0 0 0 0 0 0 0 0 127 0" result="hardAlpha"/>
<feOffset dy="4"/>
<feGaussianBlur stdDeviation="2"/>
<feComposite in2="hardAlpha" operator="out"/>
<feColorMatrix type="matrix" values="0 0 0 0 0 0 0 0 0 0 0 0 0 0 0 0 0 0 0.25 0"/>
<feBlend mode="normal" in2="BackgroundImageFix" result="effect1_dropShadow_144_76"/>
<feBlend mode="normal" in="SourceGraphic" in2="effect1_dropShadow_144_76" result="shape"/>
</filter>
</defs>
</svg>
