<svg width="11984" height="11984" viewBox="0 0 11984 11984" fill="none" xmlns="http://www.w3.org/2000/svg">
<path d="M9659.1 3307.58C10617.8 4266.3 11193.1 5788.27 10893.5 7106.51C10581.9 8436.74 9419.42 9563.23 8233.01 9802.91C7058.58 10054.6 6213.48 9136.68 5075 8525.5C3936.52 7926.3 2480.69 7621.82 1989.34 6579.22C1486.02 5548.59 1593.87 4050.59 2360.85 3139.81C3127.82 2217.04 4553.92 1869.5 5956.05 1905.46C7346.19 1941.41 8700.38 2348.86 9659.1 3307.58Z" fill="white" stroke="url(#paint0_linear_151_92)"/>
<rect x="4528.97" y="3650.65" width="3184.31" height="4297.19" rx="108" transform="rotate(-6.01219 4528.97 3650.65)" fill="white" stroke="#323232" stroke-width="80"/>
<rect x="5789.96" y="3485.31" width="3184.31" height="4297.19" rx="108" transform="rotate(15.3399 5789.96 3485.31)" fill="white" stroke="#323232" stroke-width="80"/>
<rect x="5237.13" y="3283.74" width="3184.31" height="4297.19" rx="108" transform="rotate(2.55268 5237.13 3283.74)" fill="white" stroke="#323232" stroke-width="80"/>
<circle cx="5881" cy="5659.16" r="160" stroke="#9A275A" stroke-width="80"/>
<circle cx="6769" cy="4397.16" r="567" stroke="#9A275A" stroke-width="80"/>
<path d="M6957 4276.16C6957 4410.25 6868.82 4505.16 6775.5 4505.16C6682.18 4505.16 6594 4410.25 6594 4276.16C6594 4142.06 6682.18 4047.16 6775.5 4047.16C6868.82 4047.16 6957 4142.06 6957 4276.16Z" stroke="#9A275A" stroke-width="80"/>
<circle cx="5851" cy="6314.16" r="160" stroke="#9A275A" stroke-width="80"/>
<circle cx="5832" cy="6969.16" r="160" stroke="#9A275A" stroke-width="80"/>
<rect x="6251.84" y="5509.72" width="1493.12" height="94.3736" transform="rotate(1.85551 6251.84 5509.72)" fill="#9A275A"/>
<rect x="6249.06" y="5760.16" width="1007.59" height="94.3736" transform="rotate(1.85551 6249.06 5760.16)" fill="#9A275A"/>
<rect x="6219.84" y="6170.16" width="1493.12" height="94.3736" transform="rotate(1.85551 6219.84 6170.16)" fill="#9A275A"/>
<rect x="6217.06" y="6420.59" width="1007.59" height="94.3736" transform="rotate(1.85551 6217.06 6420.59)" fill="#9A275A"/>
<rect x="6193.84" y="6828.16" width="1493.12" height="94.3736" transform="rotate(1.85551 6193.84 6828.16)" fill="#9A275A"/>
<rect x="6191.06" y="7078.59" width="1007.59" height="94.3736" transform="rotate(1.85551 6191.06 7078.59)" fill="#9A275A"/>
<path d="M6408.5 4825.66C6364.33 4662.49 6539.01 4580.29 6653.5 4577.16M6907 4577.16C7087.4 4574.76 7126.5 4740.66 7125 4831.66" stroke="#9A275A" stroke-width="80" stroke-linecap="round" stroke-linejoin="round"/>
<path d="M4205.5 3913.74L4491.4 6610.63C4494.31 6638.09 4474.41 6662.71 4446.95 6665.62L4219.22 6689.76C4191.76 6692.67 4167.14 6672.77 4164.23 6645.31L3878.34 3948.42C3868.76 3858.07 3934.23 3777.07 4024.58 3767.49C4114.92 3757.92 4195.92 3823.39 4205.5 3913.74Z" fill="#9A275A" stroke="#323232" stroke-width="80"/>
<path d="M4476.29 6679.96L4373.79 7068.52L4195.31 6714.03L4476.29 6679.96Z" fill="#9A275A" stroke="#323232" stroke-width="80"/>
<path d="M3842.5 5435.66L3745 4346.66L4244.5 4283.16" stroke="#323232" stroke-width="80" stroke-linecap="round" stroke-linejoin="round"/>
<defs>
<linearGradient id="paint0_linear_151_92" x1="1681.73" y1="9858.66" x2="9542.59" y2="678.094" gradientUnits="userSpaceOnUse">
<stop stop-color="white"/>
<stop offset="1" stop-color="white"/>
</linearGradient>
</defs>
</svg>
